<svg xmlns="http://www.w3.org/2000/svg" viewBox="0 0 1984 1984">
  <path fill="#DA702C" d="m 504.24301,1853.6948 c -10.48519,-18.0625 -34.88536,-60.3322 -50.23693,-87.0281 -8.64496,-15.0334 -20.05271,-34.8334 -25.35056,-44 -29.30024,-50.6971 -116.19633,-201.1617 -127.05405,-220 -25.72335,-44.6305 -32.15539,-55.7804 -43.84188,-76 C 251.18991,1415.3 234.39056,1386.2 220.4277,1362 c -13.96286,-24.2 -28.85643,-50 -33.09681,-57.3333 -4.24038,-7.3334 -13.40111,-23.2334 -20.35718,-35.3334 -6.95607,-12.1 -13.39681,-22.9 -14.31276,-24 -0.91594,-1.1 -9.94455,-16.4 -20.06356,-34 -10.11902,-17.6 -23.6027,-41 -29.96373,-52 -19.675181,-34.0238 -57.481045,-99.4844 -63.529042,-110 -3.163299,-5.5 -5.755915,-10.795 -5.761369,-11.7666 -0.0055,-0.9716 9.393964,-18.0716 20.887594,-38 11.49363,-19.92835 27.462791,-47.63337 35.487025,-61.5667 8.024233,-13.93333 19.629052,-34.03333 25.788492,-44.66667 6.15944,-10.63333 21.24028,-36.71659 33.51298,-57.9628 12.2727,-21.24622 22.91399,-38.60434 23.64733,-38.57362 0.73333,0.0307 6.78642,-10.18602 13.4513,-22.70386 21.50247,-40.3855 34.53027,-59.42813 56.32704,-82.33281 13.52881,-14.21646 27.09762,-25.3676 44.22166,-36.34231 15.94235,-10.21736 20.32791,-12.54696 36,-19.12304 59.12124,-24.80758 106.44961,-19.00325 138.89772,17.03434 8.10788,9.00479 22.88164,31.38852 22.13138,33.53127 -0.19934,0.56933 -9.96244,7.51964 -21.69577,15.44514 -47.19457,31.87847 -81.15617,59.43698 -115.40667,93.648 -46.02518,45.97214 -76.81311,88.19279 -102.61006,140.71303 -10.99597,22.3868 -25.3166,57.77543 -25.3166,62.56148 0,1.20085 1.12087,2.10515 2.6093,2.10515 3.51691,0 37.40855,8.7223 47.3907,12.1963 68.59102,23.8716 123.21612,67.0328 177.65826,140.3738 23.28967,31.3744 81.78282,121.6176 103.33805,159.4299 39.74445,69.72 66.64899,133.0625 82.32976,193.8326 11.1797,43.3263 14.73296,69.5158 15.62537,115.1674 0.39063,19.9834 0.99992,36.3334 1.35396,36.3334 0.35404,0 7.03016,-3.8005 14.83582,-8.4454 15.42886,-9.1814 22.14762,-13.1172 94.85878,-55.568 90.11915,-52.6141 85.41002,-49.7419 82.52528,-50.3348 -1.17776,-0.242 -17.03985,1.0752 -35.24909,2.9272 -18.20924,1.852 -33.42685,3.0481 -33.81691,2.658 -0.39006,-0.39 1.52887,-11.9279 4.26428,-25.6398 2.73542,-13.7118 5.53352,-29.4306 6.21801,-34.9306 0.68449,-5.5 1.93634,-39.4 2.78189,-75.3333 2.97798,-126.5551 -1.80193,-163.6089 -36.72183,-284.6667 -20.67615,-71.6786 -22.91044,-79.6507 -27.94423,-99.7075 -2.62835,-10.4725 -5.92389,-24.8725 -7.32342,-32.00001 -23.92721,-121.85633 -0.13257,-232.58199 71.68447,-333.57558 12.47959,-17.54958 19.32763,-26.11839 42.04543,-52.61061 10.01153,-11.67489 18.20278,-21.72489 18.20278,-22.33333 0,-1.54669 -40.0454,-1.33601 -51.14861,0.2691 -34.07218,4.92555 -95.92046,7.34175 -132.18472,5.164 -45.94061,-2.75883 -89.4206,-10.4165 -138,-24.30446 -43.50488,-12.43725 -50.72906,-13.56824 -86.66667,-13.56824 -31.03161,0 -36.54582,0.60682 -61.33333,6.74951 -30.60679,7.5848 -68.48013,25.40111 -89.66571,42.1804 -2.81816,2.23203 -5.37391,3.80825 -5.67944,3.50272 -0.50782,-0.50782 14.75503,-27.40636 57.36606,-101.0993 22.35022,-38.65321 49.00327,-84.83586 81.95141,-142 57.7091,-100.12374 87.04809,-150.7095 88.35216,-152.33518 1.06794,-1.33131 97.56382,-1.60077 477.47217,-1.33333 l 476.13375,0.33518 6.8155,12 c 3.7486,6.6 12.5486,21.9 19.5556,34 7.0069,12.1 27.1136,46.9 44.6814,77.33333 17.5678,30.43333 35.2404,61.03333 39.2725,68 4.0321,6.96667 15.4544,26.76667 25.3829,44 9.9285,17.23333 23.2718,40.33333 29.6517,51.33333 36.3566,62.6848 64.9337,112.88746 64.5039,113.31717 -0.2706,0.27061 -6.1849,-3.39914 -13.1429,-8.15501 -25.199,-17.22366 -63.585,-33.3361 -95.9843,-40.28922 -61.349,-13.16587 -132.1797,-6.28694 -193.3334,18.7761 -51.7812,21.2219 -64.8093,21.53685 -231.0122,5.58464 -19.6235,-1.88346 -36.6877,-3.23022 -37.9206,-2.99278 -1.7666,0.34021 -0.987,1.86863 3.6789,7.21247 45.7658,52.41525 66.1518,79.89374 86.7704,116.95875 48.6949,87.5362 62.9882,185.36308 42.4086,290.25455 -6.5298,33.2815 -27.8748,114.1478 -47.8638,181.3333 -16.4971,55.4489 -22.2034,78.3573 -27.2342,109.3334 -12.0963,74.4816 -9.7093,135.5603 7.9688,203.904 3.11,12.0232 8.0998,55.6447 6.5432,57.2013 -0.4018,0.4019 -15.7465,-1.2534 -34.0993,-3.6784 -18.3528,-2.425 -33.6669,-4.1109 -34.0313,-3.7465 -0.3644,0.3644 4.9146,3.9382 11.7312,7.9419 6.8165,4.0036 29.4937,17.3756 50.3937,29.7156 81.1868,47.935 128.2934,75.4177 129.754,75.7004 1.0796,0.209 1.9916,-9.8764 3.1266,-34.5784 1.9866,-43.2322 4.2055,-59.6047 12.4407,-91.7933 18.573,-72.595 39.9579,-129.9359 73.5717,-197.2731 36.9578,-74.036 86.7843,-146.2763 148.8861,-215.8604 43.8233,-49.1033 73.9032,-75.432 104.5797,-91.5376 26.0551,-13.6794 50.4248,-19.9955 77.1492,-19.9955 7.9706,0 14.492,-0.4949 14.492,-1.0998 0,-1.8314 -6.0188,-18.73996 -11.8183,-33.20121 -20.0504,-49.996 -48.4577,-96.91275 -85.3928,-141.03236 -11.6614,-13.92971 -49.2822,-51.94624 -64.7889,-65.47034 -26.1488,-22.80549 -53.7466,-43.94014 -85.277,-65.30586 -11.3376,-7.68258 -20.8681,-14.40081 -21.1789,-14.9294 -1.2572,-2.13838 12.4902,-20.40532 24.4212,-32.44975 23.7291,-23.95454 49.4158,-34.61021 79.1221,-32.82231 30.1082,1.81208 61.028,15.0577 94.5314,40.4959 12.1552,9.22906 52.5971,47.98479 63.1173,60.48567 11.9927,14.2506 17.3124,21.00706 30.8468,39.17768 15.9649,21.43377 20.445,28.56883 47.815,76.15175 19.5233,33.94131 31.5966,54.86778 61.9251,107.33333 11.2337,19.43333 27.303,47.33333 35.7096,62 8.4066,14.6667 15.8133,27.2367 16.4593,27.9333 2.1258,2.2922 1.2582,4.7311 -6.3334,17.8041 -10.8587,18.699 -27.7816,48.0008 -82.162,142.2626 -16.0765,27.8667 -29.981,51.5667 -30.899,52.6667 -0.918,1.1 -3.1638,4.7 -4.9908,8 -1.827,3.3 -15.9507,27.9 -31.386,54.6666 -15.4353,26.7667 -29.2622,50.7667 -30.7266,53.3334 -1.4643,2.5666 -16.7266,28.9666 -33.9162,58.6666 -17.1896,29.7 -41.6572,72 -54.3725,94 -12.7154,22 -26.4179,45.7 -30.45,52.6667 -4.0322,6.9667 -33.1241,57.3667 -64.6486,112 -73.8244,127.9406 -74.203,128.597 -89.6094,155.3333 -7.1837,12.4667 -13.7193,23.7217 -14.5237,25.0112 -1.3857,2.2215 -12.7251,2.3426 -216.2691,2.3101 -118.1436,-0.019 -215.1912,-0.4189 -215.6612,-0.8889 -0.47,-0.4701 11.5904,-6.9745 26.801,-14.4544 15.2106,-7.4799 36.6556,-18.3994 47.6556,-24.2655 33.9904,-18.1264 98.5284,-53.4465 101.2547,-55.4143 2.5306,-1.8265 2.4905,-2.1164 -1.8111,-13.083 -10.8674,-27.7057 -30.1563,-57.5749 -50.7728,-78.6225 -13.2771,-13.5548 -33.9799,-28.3552 -52.6708,-37.6544 -35.0832,-17.4546 -65.0119,-23.9749 -110.00003,-23.9648 -55.73725,0.013 -103.76681,13.0712 -145.99156,39.6933 -6.59535,4.1583 -12.29535,7.9733 -12.66667,8.4777 -0.37131,0.5044 -2.4014,2.0171 -4.51131,3.3615 -14.23749,9.0718 -41.94837,38.7656 -56.14328,60.1607 -8.59324,12.952 -19.38579,32.3727 -19.75261,35.5438 -0.40098,3.4664 100.27277,63.5314 152.07876,90.7348 8.99066,4.721 15.96659,8.9637 15.50207,9.4282 -0.46452,0.4645 -92.83667,0.8832 -205.27144,0.9303 l -204.42685,0.086 z m 119.09032,-629.8176 c -13.47756,-1.6032 -28.60519,-5.7776 -38.21427,-10.5452 -17.08611,-8.4773 -26.54024,-19.4441 -32.75731,-37.9987 -3.42974,-10.2359 -3.56792,-11.7436 -3.42156,-37.3333 0.12381,-21.647 0.73988,-29.9295 3.27283,-44 1.71617,-9.5333 3.50958,-17.3333 3.98534,-17.3333 1.5169,0 131.47258,146.6241 130.87967,147.6666 -0.75373,1.3253 -51.84201,0.9597 -63.7447,-0.4561 z M 1280,1224.116 c 0,-1.3307 11.1526,-14.1449 58.6403,-67.3767 2.5812,-2.8935 7.993,-8.8961 12.0264,-13.3391 4.0333,-4.4431 18.0891,-20.2258 31.2351,-35.0726 13.146,-14.8469 24.3229,-26.9943 24.8375,-26.9943 1.3936,0 6.1657,13.5713 10.08,28.6667 4.5549,17.5656 5.7522,42.5632 2.6669,55.6786 -6.8831,29.2594 -28.7386,47.1737 -68.1417,55.8535 -14.786,3.2572 -71.3445,5.3055 -71.3445,2.5839 z"/>
</svg>
